<?xml version="1.0" encoding="UTF-8" standalone="no"?>
<!DOCTYPE svg PUBLIC "-//W3C//DTD SVG 1.1//EN" "http://www.w3.org/Graphics/SVG/1.1/DTD/svg11.dtd">
<svg xmlns="http://www.w3.org/2000/svg" xmlns:xlink="http://www.w3.org/1999/xlink" xmlns:ev="http://www.w3.org/2001/xml-events"
		width="2.39278in" height="2.39128in" viewBox="0 0 172.28 172.172" xml:space="preserve" color-interpolation-filters="sRGB"
		class="st6">
	<style type="text/css">
	<![CDATA[
		.st1 {fill:#ffffff;stroke:#c7c8c8;stroke-width:0.25}
		.st2 {fill:#000000;font-family:Calibri;font-size:0.666664em}
		.st3 {fill:#f2f2f2;stroke:#c7c8c8;stroke-width:0.25}
		.st4 {fill:#a5a5a5;stroke:#c7c8c8;stroke-width:0.25}
		.st5 {fill:#feffff;font-family:Calibri;font-size:1.99999em}
		.st6 {fill:none;fill-rule:evenodd;font-size:12px;overflow:visible;stroke-linecap:square;stroke-miterlimit:3}
	]]>
	</style>

	<g>
		<title>A solution superimposed onto the scores</title>
		<g id="group26-1" transform="translate(0.25,-0.25)">
			<title>Sheet.26</title>
			<g id="shape15-2" transform="translate(2.31815E-013,-114.405)">
				<title>Square.1</title>
				<desc>9,4</desc>
				<rect x="0" y="114.905" width="57.2671" height="57.2671" class="st1"/>
				<text x="4" y="164.57" class="st2">9,4</text>			</g>
			<g id="shape16-5" transform="translate(7.99361E-015,-57.2026)">
				<title>Square.2</title>
				<desc>7,8</desc>
				<rect x="0" y="114.905" width="57.2671" height="57.2671" class="st3"/>
				<text x="4" y="165.77" class="st2">7,8</text>			</g>
			<g id="shape17-8">
				<title>Square.3</title>
				<desc>1,7</desc>
				<rect x="0" y="114.905" width="57.2671" height="57.2671" class="st1"/>
				<text x="4" y="165.77" class="st2">1,7</text>			</g>
			<g id="shape18-11" transform="translate(57.318,-114.405)">
				<title>Square.12</title>
				<desc>6,5</desc>
				<rect x="0" y="114.905" width="57.2671" height="57.2671" class="st3"/>
				<text x="4" y="165.77" class="st2">6,5</text>			</g>
			<g id="shape19-14" transform="translate(57.318,-57.2026)">
				<title>Square.13</title>
				<desc>2,9</desc>
				<rect x="0" y="114.905" width="57.2671" height="57.2671" class="st1"/>
				<text x="4" y="165.77" class="st2">2,9</text>			</g>
			<g id="shape20-17" transform="translate(57.318,0)">
				<title>Square.14</title>
				<desc>4,4</desc>
				<rect x="0" y="114.905" width="57.2671" height="57.2671" class="st3"/>
				<text x="4" y="165.77" class="st2">4,4</text>			</g>
			<g id="shape21-20" transform="translate(114.513,-114.405)">
				<title>Square.16</title>
				<desc>5,5</desc>
				<rect x="0" y="114.905" width="57.2671" height="57.2671" class="st1"/>
				<text x="4" y="165.77" class="st2">5,5</text>			</g>
			<g id="shape22-23" transform="translate(114.513,-57.2026)">
				<title>Square.17</title>
				<desc>8,3</desc>
				<rect x="0" y="114.905" width="57.2671" height="57.2671" class="st3"/>
				<text x="4" y="165.77" class="st2">8,3</text>			</g>
			<g id="shape23-26" transform="translate(114.513,0)">
				<title>Square.18</title>
				<desc>3,4</desc>
				<rect x="0" y="114.905" width="57.2671" height="57.2671" class="st1"/>
				<text x="4" y="165.77" class="st2">3,4</text>			</g>
			<g id="shape13-29" transform="translate(68.5205,-125.608)">
				<title>Circle.126</title>
				<desc>R</desc>
				<path d="M0 154.74 A17.4311 17.4311 0 0 1 34.86 154.74 A17.4311 17.4311 0 1 1 0 154.74 Z" class="st4"/>
				<text x="10.92" y="161.94" class="st5">R</text>			</g>
			<g id="shape24-32" transform="translate(11.2025,-68.4051)">
				<title>Circle.24</title>
				<desc>R</desc>
				<path d="M0 154.74 A17.4311 17.4311 0 0 1 34.86 154.74 A17.4311 17.4311 0 1 1 0 154.74 Z" class="st4"/>
				<text x="10.92" y="161.94" class="st5">R</text>			</g>
			<g id="shape25-35" transform="translate(125.716,-11.2025)">
				<title>Circle.25</title>
				<desc>R</desc>
				<path d="M0 154.74 A17.4311 17.4311 0 0 1 34.86 154.74 A17.4311 17.4311 0 1 1 0 154.74 Z" class="st4"/>
				<text x="10.92" y="161.94" class="st5">R</text>			</g>
		</g>
	</g>
</svg>
