<?xml version="1.0" encoding="UTF-8" standalone="no"?>
<!DOCTYPE svg PUBLIC "-//W3C//DTD SVG 1.1//EN" "http://www.w3.org/Graphics/SVG/1.1/DTD/svg11.dtd">
<svg xmlns="http://www.w3.org/2000/svg" xmlns:xlink="http://www.w3.org/1999/xlink" xmlns:ev="http://www.w3.org/2001/xml-events"
		width="9.0857in" height="5.86556in" viewBox="0 0 654.17 422.32" xml:space="preserve" color-interpolation-filters="sRGB"
		class="st8">
	<style type="text/css">
	<![CDATA[
		.st1 {fill:#ffffff;stroke:#c7c8c8;stroke-width:0.25}
		.st2 {fill:#f2f2f2;stroke:#c7c8c8;stroke-width:0.25}
		.st3 {fill:#feffff;font-family:Calibri;font-size:0.833336em}
		.st4 {fill:#a5a5a5;stroke:#c7c8c8;stroke-width:0.25}
		.st5 {fill:#feffff;font-family:Calibri;font-size:1.99999em}
		.st6 {fill:none;stroke:none;stroke-width:0.25}
		.st7 {fill:#000000;font-family:Calibri;font-size:1.00001em}
		.st8 {fill:none;fill-rule:evenodd;font-size:12px;overflow:visible;stroke-linecap:square;stroke-miterlimit:3}
	]]>
	</style>

	<g>
		<title>All six solutions to the 3-rooks problem</title>
		<g id="group142-1" transform="translate(0.25,-227.818)">
			<title>Sheet.142</title>
			<g id="group129-2" transform="translate(0,-22.5796)">
				<title>Sheet.129</title>
				<g id="shape2-3" transform="translate(7.99361E-015,-114.405)">
					<title>Square.2</title>
					<rect x="0" y="365.053" width="57.2671" height="57.2671" class="st1"/>
				</g>
				<g id="shape8-5" transform="translate(2.31815E-013,-57.2026)">
					<title>Square.8</title>
					<rect x="0" y="365.053" width="57.2671" height="57.2671" class="st2"/>
				</g>
				<g id="shape9-7">
					<title>Square.9</title>
					<desc>d</desc>
					<rect x="0" y="365.053" width="57.2671" height="57.2671" class="st1"/>
					<text x="26.01" y="396.69" class="st3">d</text>				</g>
				<g id="shape12-10" transform="translate(57.318,-114.405)">
					<title>Square.12</title>
					<rect x="0" y="365.053" width="57.2671" height="57.2671" class="st2"/>
				</g>
				<g id="shape13-12" transform="translate(57.318,-57.2026)">
					<title>Square.13</title>
					<desc>d</desc>
					<rect x="0" y="365.053" width="57.2671" height="57.2671" class="st1"/>
					<text x="26.01" y="396.69" class="st3">d</text>				</g>
				<g id="shape14-15" transform="translate(57.318,0)">
					<title>Square.14</title>
					<rect x="0" y="365.053" width="57.2671" height="57.2671" class="st2"/>
				</g>
				<g id="shape16-17" transform="translate(114.513,-114.405)">
					<title>Square.16</title>
					<rect x="0" y="365.053" width="57.2671" height="57.2671" class="st1"/>
				</g>
				<g id="shape17-19" transform="translate(114.513,-57.2026)">
					<title>Square.17</title>
					<rect x="0" y="365.053" width="57.2671" height="57.2671" class="st2"/>
				</g>
				<g id="shape18-21" transform="translate(114.513,0)">
					<title>Square.18</title>
					<desc>d</desc>
					<rect x="0" y="365.053" width="57.2671" height="57.2671" class="st1"/>
					<text x="26.01" y="396.69" class="st3">d</text>				</g>
				<g id="shape22-24" transform="translate(11.2025,-125.608)">
					<title>Circle</title>
					<desc>R</desc>
					<path d="M0 404.89 A17.4311 17.4311 0 0 1 34.86 404.89 A17.4311 17.4311 0 1 1 0 404.89 Z" class="st4"/>
					<text x="10.92" y="412.09" class="st5">R</text>				</g>
				<g id="shape103-27" transform="translate(68.5205,-68.4051)">
					<title>Circle.103</title>
					<desc>R</desc>
					<path d="M0 404.89 A17.4311 17.4311 0 0 1 34.86 404.89 A17.4311 17.4311 0 1 1 0 404.89 Z" class="st4"/>
					<text x="10.92" y="412.09" class="st5">R</text>				</g>
				<g id="shape104-30" transform="translate(125.716,-11.2025)">
					<title>Circle.104</title>
					<desc>R</desc>
					<path d="M0 404.89 A17.4311 17.4311 0 0 1 34.86 404.89 A17.4311 17.4311 0 1 1 0 404.89 Z" class="st4"/>
					<text x="10.92" y="412.09" class="st5">R</text>				</g>
			</g>
			<g id="shape135-33" transform="translate(9.8902,1.13687E-013)">
				<title>Sheet.135</title>
				<desc>Solution 1</desc>
				<rect x="0" y="402.32" width="152" height="20" class="st6"/>
				<text x="51.45" y="415.92" class="st7">Solution 1</text>			</g>
		</g>
		<g id="group143-36" transform="translate(241.195,-227.818)">
			<title>Sheet.143</title>
			<g id="group130-37" transform="translate(0,-22.5796)">
				<title>Sheet.130</title>
				<g id="shape33-38" transform="translate(7.99361E-015,-114.405)">
					<title>Square.33</title>
					<rect x="0" y="365.053" width="57.2671" height="57.2671" class="st1"/>
				</g>
				<g id="shape34-40" transform="translate(7.99361E-015,-57.2026)">
					<title>Square.34</title>
					<rect x="0" y="365.053" width="57.2671" height="57.2671" class="st2"/>
				</g>
				<g id="shape35-42">
					<title>Square.35</title>
					<desc>d</desc>
					<rect x="0" y="365.053" width="57.2671" height="57.2671" class="st1"/>
					<text x="26.01" y="396.69" class="st3">d</text>				</g>
				<g id="shape36-45" transform="translate(57.318,-114.405)">
					<title>Square.36</title>
					<rect x="0" y="365.053" width="57.2671" height="57.2671" class="st2"/>
				</g>
				<g id="shape37-47" transform="translate(57.318,-57.2026)">
					<title>Square.37</title>
					<desc>d</desc>
					<rect x="0" y="365.053" width="57.2671" height="57.2671" class="st1"/>
					<text x="26.01" y="396.69" class="st3">d</text>				</g>
				<g id="shape38-50" transform="translate(57.318,0)">
					<title>Square.38</title>
					<rect x="0" y="365.053" width="57.2671" height="57.2671" class="st2"/>
				</g>
				<g id="shape39-52" transform="translate(114.513,-114.405)">
					<title>Square.39</title>
					<rect x="0" y="365.053" width="57.2671" height="57.2671" class="st1"/>
				</g>
				<g id="shape40-54" transform="translate(114.513,-57.2026)">
					<title>Square.40</title>
					<rect x="0" y="365.053" width="57.2671" height="57.2671" class="st2"/>
				</g>
				<g id="shape41-56" transform="translate(114.513,0)">
					<title>Square.41</title>
					<desc>d</desc>
					<rect x="0" y="365.053" width="57.2671" height="57.2671" class="st1"/>
					<text x="26.01" y="396.69" class="st3">d</text>				</g>
				<g id="shape42-59" transform="translate(68.5205,-125.608)">
					<title>Circle.42</title>
					<desc>R</desc>
					<path d="M0 404.89 A17.4311 17.4311 0 0 1 34.86 404.89 A17.4311 17.4311 0 1 1 0 404.89 Z" class="st4"/>
					<text x="10.92" y="412.09" class="st5">R</text>				</g>
				<g id="shape107-62" transform="translate(11.2025,-68.4051)">
					<title>Circle.107</title>
					<desc>R</desc>
					<path d="M0 404.89 A17.4311 17.4311 0 0 1 34.86 404.89 A17.4311 17.4311 0 1 1 0 404.89 Z" class="st4"/>
					<text x="10.92" y="412.09" class="st5">R</text>				</g>
				<g id="shape108-65" transform="translate(125.716,-11.2025)">
					<title>Circle.108</title>
					<desc>R</desc>
					<path d="M0 404.89 A17.4311 17.4311 0 0 1 34.86 404.89 A17.4311 17.4311 0 1 1 0 404.89 Z" class="st4"/>
					<text x="10.92" y="412.09" class="st5">R</text>				</g>
			</g>
			<g id="shape137-68" transform="translate(9.8902,0)">
				<title>Sheet.137</title>
				<desc>Solution 2</desc>
				<rect x="0" y="402.32" width="152" height="20" class="st6"/>
				<text x="51.45" y="415.92" class="st7">Solution 2</text>			</g>
		</g>
		<g id="group144-71" transform="translate(482.14,-227.818)">
			<title>Sheet.144</title>
			<g id="group131-72" transform="translate(0,-22.5796)">
				<title>Sheet.131</title>
				<g id="shape43-73" transform="translate(7.99361E-015,-114.405)">
					<title>Square.43</title>
					<rect x="0" y="365.053" width="57.2671" height="57.2671" class="st1"/>
				</g>
				<g id="shape44-75" transform="translate(7.99361E-015,-57.2026)">
					<title>Square.44</title>
					<rect x="0" y="365.053" width="57.2671" height="57.2671" class="st2"/>
				</g>
				<g id="shape45-77">
					<title>Square.45</title>
					<desc>d</desc>
					<rect x="0" y="365.053" width="57.2671" height="57.2671" class="st1"/>
					<text x="26.01" y="396.69" class="st3">d</text>				</g>
				<g id="shape46-80" transform="translate(57.318,-114.405)">
					<title>Square.46</title>
					<rect x="0" y="365.053" width="57.2671" height="57.2671" class="st2"/>
				</g>
				<g id="shape47-82" transform="translate(57.318,-57.2026)">
					<title>Square.47</title>
					<desc>d</desc>
					<rect x="0" y="365.053" width="57.2671" height="57.2671" class="st1"/>
					<text x="26.01" y="396.69" class="st3">d</text>				</g>
				<g id="shape48-85" transform="translate(57.318,0)">
					<title>Square.48</title>
					<rect x="0" y="365.053" width="57.2671" height="57.2671" class="st2"/>
				</g>
				<g id="shape49-87" transform="translate(114.513,-114.405)">
					<title>Square.49</title>
					<rect x="0" y="365.053" width="57.2671" height="57.2671" class="st1"/>
				</g>
				<g id="shape50-89" transform="translate(114.513,-57.2026)">
					<title>Square.50</title>
					<rect x="0" y="365.053" width="57.2671" height="57.2671" class="st2"/>
				</g>
				<g id="shape51-91" transform="translate(114.513,0)">
					<title>Square.51</title>
					<desc>d</desc>
					<rect x="0" y="365.053" width="57.2671" height="57.2671" class="st1"/>
					<text x="26.01" y="396.69" class="st3">d</text>				</g>
				<g id="shape52-94" transform="translate(11.2025,-68.4051)">
					<title>Circle.52</title>
					<desc>R</desc>
					<path d="M0 404.89 A17.4311 17.4311 0 0 1 34.86 404.89 A17.4311 17.4311 0 1 1 0 404.89 Z" class="st4"/>
					<text x="10.92" y="412.09" class="st5">R</text>				</g>
				<g id="shape109-97" transform="translate(125.716,-125.608)">
					<title>Circle.109</title>
					<desc>R</desc>
					<path d="M0 404.89 A17.4311 17.4311 0 0 1 34.86 404.89 A17.4311 17.4311 0 1 1 0 404.89 Z" class="st4"/>
					<text x="10.92" y="412.09" class="st5">R</text>				</g>
				<g id="shape110-100" transform="translate(68.5205,-11.2025)">
					<title>Circle.110</title>
					<desc>R</desc>
					<path d="M0 404.89 A17.4311 17.4311 0 0 1 34.86 404.89 A17.4311 17.4311 0 1 1 0 404.89 Z" class="st4"/>
					<text x="10.92" y="412.09" class="st5">R</text>				</g>
			</g>
			<g id="shape138-103" transform="translate(9.8902,0)">
				<title>Sheet.138</title>
				<desc>Solution 3</desc>
				<rect x="0" y="402.32" width="152" height="20" class="st6"/>
				<text x="51.45" y="415.92" class="st7">Solution 3</text>			</g>
		</g>
		<g id="group145-106" transform="translate(482.14,-0.25)">
			<title>Sheet.145</title>
			<g id="group132-107" transform="translate(0,-23.3764)">
				<title>Sheet.132</title>
				<g id="shape53-108" transform="translate(7.99361E-015,-114.405)">
					<title>Square.53</title>
					<rect x="0" y="365.053" width="57.2671" height="57.2671" class="st1"/>
				</g>
				<g id="shape54-110" transform="translate(7.99361E-015,-57.2026)">
					<title>Square.54</title>
					<rect x="0" y="365.053" width="57.2671" height="57.2671" class="st2"/>
				</g>
				<g id="shape55-112">
					<title>Square.55</title>
					<desc>d</desc>
					<rect x="0" y="365.053" width="57.2671" height="57.2671" class="st1"/>
					<text x="26.01" y="396.69" class="st3">d</text>				</g>
				<g id="shape56-115" transform="translate(57.318,-114.405)">
					<title>Square.56</title>
					<rect x="0" y="365.053" width="57.2671" height="57.2671" class="st2"/>
				</g>
				<g id="shape57-117" transform="translate(57.318,-57.2026)">
					<title>Square.57</title>
					<desc>d</desc>
					<rect x="0" y="365.053" width="57.2671" height="57.2671" class="st1"/>
					<text x="26.01" y="396.69" class="st3">d</text>				</g>
				<g id="shape58-120" transform="translate(57.318,0)">
					<title>Square.58</title>
					<rect x="0" y="365.053" width="57.2671" height="57.2671" class="st2"/>
				</g>
				<g id="shape59-122" transform="translate(114.513,-114.405)">
					<title>Square.59</title>
					<rect x="0" y="365.053" width="57.2671" height="57.2671" class="st1"/>
				</g>
				<g id="shape60-124" transform="translate(114.513,-57.2026)">
					<title>Square.60</title>
					<rect x="0" y="365.053" width="57.2671" height="57.2671" class="st2"/>
				</g>
				<g id="shape61-126" transform="translate(114.513,0)">
					<title>Square.61</title>
					<desc>d</desc>
					<rect x="0" y="365.053" width="57.2671" height="57.2671" class="st1"/>
					<text x="26.01" y="396.69" class="st3">d</text>				</g>
				<g id="shape62-129" transform="translate(125.716,-125.608)">
					<title>Circle.62</title>
					<desc>R</desc>
					<path d="M0 404.89 A17.4311 17.4311 0 0 1 34.86 404.89 A17.4311 17.4311 0 1 1 0 404.89 Z" class="st4"/>
					<text x="10.92" y="412.09" class="st5">R</text>				</g>
				<g id="shape122-132" transform="translate(68.5205,-68.4051)">
					<title>Circle.122</title>
					<desc>R</desc>
					<path d="M0 404.89 A17.4311 17.4311 0 0 1 34.86 404.89 A17.4311 17.4311 0 1 1 0 404.89 Z" class="st4"/>
					<text x="10.92" y="412.09" class="st5">R</text>				</g>
				<g id="shape123-135" transform="translate(11.2025,-11.2025)">
					<title>Circle.123</title>
					<desc>R</desc>
					<path d="M0 404.89 A17.4311 17.4311 0 0 1 34.86 404.89 A17.4311 17.4311 0 1 1 0 404.89 Z" class="st4"/>
					<text x="10.92" y="412.09" class="st5">R</text>				</g>
			</g>
			<g id="shape141-138" transform="translate(9.8902,0)">
				<title>Sheet.141</title>
				<desc>Solution 6</desc>
				<rect x="0" y="402.32" width="152" height="20" class="st6"/>
				<text x="51.45" y="415.92" class="st7">Solution 6</text>			</g>
		</g>
		<g id="group146-141" transform="translate(241.195,-0.25)">
			<title>Sheet.146</title>
			<g id="group133-142" transform="translate(0,-23.3764)">
				<title>Sheet.133</title>
				<g id="shape63-143" transform="translate(7.99361E-015,-114.405)">
					<title>Square.63</title>
					<rect x="0" y="365.053" width="57.2671" height="57.2671" class="st1"/>
				</g>
				<g id="shape64-145" transform="translate(7.99361E-015,-57.2026)">
					<title>Square.64</title>
					<rect x="0" y="365.053" width="57.2671" height="57.2671" class="st2"/>
				</g>
				<g id="shape65-147">
					<title>Square.65</title>
					<desc>d</desc>
					<rect x="0" y="365.053" width="57.2671" height="57.2671" class="st1"/>
					<text x="26.01" y="396.69" class="st3">d</text>				</g>
				<g id="shape66-150" transform="translate(57.318,-114.405)">
					<title>Square.66</title>
					<rect x="0" y="365.053" width="57.2671" height="57.2671" class="st2"/>
				</g>
				<g id="shape67-152" transform="translate(57.318,-57.2026)">
					<title>Square.67</title>
					<desc>d</desc>
					<rect x="0" y="365.053" width="57.2671" height="57.2671" class="st1"/>
					<text x="26.01" y="396.69" class="st3">d</text>				</g>
				<g id="shape68-155" transform="translate(57.318,0)">
					<title>Square.68</title>
					<rect x="0" y="365.053" width="57.2671" height="57.2671" class="st2"/>
				</g>
				<g id="shape69-157" transform="translate(114.513,-114.405)">
					<title>Square.69</title>
					<rect x="0" y="365.053" width="57.2671" height="57.2671" class="st1"/>
				</g>
				<g id="shape70-159" transform="translate(114.513,-57.2026)">
					<title>Square.70</title>
					<rect x="0" y="365.053" width="57.2671" height="57.2671" class="st2"/>
				</g>
				<g id="shape71-161" transform="translate(114.513,0)">
					<title>Square.71</title>
					<desc>d</desc>
					<rect x="0" y="365.053" width="57.2671" height="57.2671" class="st1"/>
					<text x="26.01" y="396.69" class="st3">d</text>				</g>
				<g id="shape72-164" transform="translate(68.5205,-125.608)">
					<title>Circle.72</title>
					<desc>R</desc>
					<path d="M0 404.89 A17.4311 17.4311 0 0 1 34.86 404.89 A17.4311 17.4311 0 1 1 0 404.89 Z" class="st4"/>
					<text x="10.92" y="412.09" class="st5">R</text>				</g>
				<g id="shape124-167" transform="translate(125.716,-68.4051)">
					<title>Circle.124</title>
					<desc>R</desc>
					<path d="M0 404.89 A17.4311 17.4311 0 0 1 34.86 404.89 A17.4311 17.4311 0 1 1 0 404.89 Z" class="st4"/>
					<text x="10.92" y="412.09" class="st5">R</text>				</g>
				<g id="shape125-170" transform="translate(11.2025,-11.2025)">
					<title>Circle.125</title>
					<desc>R</desc>
					<path d="M0 404.89 A17.4311 17.4311 0 0 1 34.86 404.89 A17.4311 17.4311 0 1 1 0 404.89 Z" class="st4"/>
					<text x="10.92" y="412.09" class="st5">R</text>				</g>
			</g>
			<g id="shape140-173" transform="translate(9.8902,0)">
				<title>Sheet.140</title>
				<desc>Solution 5</desc>
				<rect x="0" y="402.32" width="152" height="20" class="st6"/>
				<text x="51.45" y="415.92" class="st7">Solution 5</text>			</g>
		</g>
		<g id="group147-176" transform="translate(0.25,-0.25)">
			<title>Sheet.147</title>
			<g id="group134-177" transform="translate(-7.99361E-014,-23.3764)">
				<title>Sheet.134</title>
				<g id="shape23-178" transform="translate(2.31815E-013,-114.405)">
					<title>Square.23</title>
					<rect x="0" y="365.053" width="57.2671" height="57.2671" class="st1"/>
				</g>
				<g id="shape24-180" transform="translate(2.31815E-013,-57.2026)">
					<title>Square.24</title>
					<rect x="0" y="365.053" width="57.2671" height="57.2671" class="st2"/>
				</g>
				<g id="shape25-182">
					<title>Square.25</title>
					<desc>d</desc>
					<rect x="0" y="365.053" width="57.2671" height="57.2671" class="st1"/>
					<text x="26.01" y="396.69" class="st3">d</text>				</g>
				<g id="shape26-185" transform="translate(57.318,-114.405)">
					<title>Square.26</title>
					<rect x="0" y="365.053" width="57.2671" height="57.2671" class="st2"/>
				</g>
				<g id="shape27-187" transform="translate(57.318,-57.2026)">
					<title>Square.27</title>
					<desc>d</desc>
					<rect x="0" y="365.053" width="57.2671" height="57.2671" class="st1"/>
					<text x="26.01" y="396.69" class="st3">d</text>				</g>
				<g id="shape28-190" transform="translate(57.318,3.97904E-013)">
					<title>Square.28</title>
					<rect x="0" y="365.053" width="57.2671" height="57.2671" class="st2"/>
				</g>
				<g id="shape29-192" transform="translate(114.513,-114.405)">
					<title>Square.29</title>
					<rect x="0" y="365.053" width="57.2671" height="57.2671" class="st1"/>
				</g>
				<g id="shape30-194" transform="translate(114.513,-57.2026)">
					<title>Square.30</title>
					<rect x="0" y="365.053" width="57.2671" height="57.2671" class="st2"/>
				</g>
				<g id="shape31-196" transform="translate(114.513,3.97904E-013)">
					<title>Square.31</title>
					<desc>d</desc>
					<rect x="0" y="365.053" width="57.2671" height="57.2671" class="st1"/>
					<text x="26.01" y="396.69" class="st3">d</text>				</g>
				<g id="shape32-199" transform="translate(11.2025,-125.608)">
					<title>Circle.32</title>
					<desc>R</desc>
					<path d="M0 404.89 A17.4311 17.4311 0 0 1 34.86 404.89 A17.4311 17.4311 0 1 1 0 404.89 Z" class="st4"/>
					<text x="10.92" y="412.09" class="st5">R</text>				</g>
				<g id="shape105-202" transform="translate(125.716,-68.4051)">
					<title>Circle.105</title>
					<desc>R</desc>
					<path d="M0 404.89 A17.4311 17.4311 0 0 1 34.86 404.89 A17.4311 17.4311 0 1 1 0 404.89 Z" class="st4"/>
					<text x="10.92" y="412.09" class="st5">R</text>				</g>
				<g id="shape106-205" transform="translate(68.5205,-11.2025)">
					<title>Circle.106</title>
					<desc>R</desc>
					<path d="M0 404.89 A17.4311 17.4311 0 0 1 34.86 404.89 A17.4311 17.4311 0 1 1 0 404.89 Z" class="st4"/>
					<text x="10.92" y="412.09" class="st5">R</text>				</g>
			</g>
			<g id="shape139-208" transform="translate(9.8902,-5.68434E-014)">
				<title>Sheet.139</title>
				<desc>Solution 4</desc>
				<rect x="0" y="402.32" width="152" height="20" class="st6"/>
				<text x="51.45" y="415.92" class="st7">Solution 4</text>			</g>
		</g>
	</g>
</svg>
