<?xml version="1.0" encoding="UTF-8" standalone="no"?>
<!DOCTYPE svg PUBLIC "-//W3C//DTD SVG 1.1//EN" "http://www.w3.org/Graphics/SVG/1.1/DTD/svg11.dtd">
<svg xmlns="http://www.w3.org/2000/svg" xmlns:xlink="http://www.w3.org/1999/xlink" xmlns:ev="http://www.w3.org/2001/xml-events"
		width="5.67971in" height="4.69546in" viewBox="0 0 408.939 338.073" xml:space="preserve" color-interpolation-filters="sRGB"
		class="st7">
	<style type="text/css">
	<![CDATA[
		.st1 {fill:#d8d8d8;stroke:none;stroke-width:0.25}
		.st2 {stroke:#000000;stroke-linecap:round;stroke-linejoin:round;stroke-width:1}
		.st3 {fill:#ffffff;stroke:#000000;stroke-width:1}
		.st4 {fill:#000000;stroke:#c7c8c8;stroke-width:0.25}
		.st5 {fill:none;stroke:none;stroke-width:0.25}
		.st6 {fill:#000000;font-family:Calibri;font-size:1.00001em}
		.st7 {fill:none;fill-rule:evenodd;font-size:12px;overflow:visible;stroke-linecap:square;stroke-miterlimit:3}
	]]>
	</style>

	<g>
		<title>Graph of the metric points</title>
		<g id="shape15-1" transform="translate(23.4941,-21.5098)">
			<title>Rectangle.15</title>
			<rect x="0" y="87.2067" width="56.9764" height="250.866" class="st1"/>
		</g>
		<g id="shape14-3" transform="translate(23.4941,-21.5098)">
			<title>Rectangle.14</title>
			<rect x="0" y="243.112" width="307.276" height="94.9606" class="st1"/>
		</g>
		<g id="shape13-5" transform="translate(23.4941,-21.5098)">
			<title>Rectangle</title>
			<rect x="0" y="149.569" width="210.898" height="188.504" class="st1"/>
		</g>
		<g id="shape2-7" transform="translate(361,0.5) rotate(90)">
			<title>Sheet.2</title>
			<path d="M0 338.07 L316.29 338.07" class="st2"/>
		</g>
		<g id="shape3-10" transform="translate(22.9272,-21.2861)">
			<title>Sheet.3</title>
			<path d="M0 338.07 L385.51 338.07" class="st2"/>
		</g>
		<g id="shape17-13" transform="translate(228,-203.636)">
			<title>Sheet.17</title>
			<ellipse cx="6.37795" cy="331.695" rx="6.37795" ry="6.37795" class="st3"/>
		</g>
		<g id="shape5-15" transform="translate(465.931,-110.995) rotate(45)">
			<title>Cross</title>
			<path d="M0 333.86 L4.21 333.86 L4.21 338.07 L6.39 338.07 L6.39 333.86 L10.61 333.86 L10.61 331.68 L6.39 331.68 L6.39
						 327.47 L4.21 327.47 L4.21 331.68 L0 331.68 L0 333.86 Z" class="st4"/>
		</g>
		<g id="shape7-17" transform="translate(447.236,-79.8134) rotate(45)">
			<title>Cross.7</title>
			<path d="M0 333.86 L4.21 333.86 L4.21 338.07 L6.39 338.07 L6.39 333.86 L10.61 333.86 L10.61 331.68 L6.39 331.68 L6.39
						 327.47 L4.21 327.47 L4.21 331.68 L0 331.68 L0 333.86 Z" class="st4"/>
		</g>
		<g id="shape8-19" transform="translate(427.393,-110.995) rotate(45)">
			<title>Cross.8</title>
			<path d="M0 333.86 L4.21 333.86 L4.21 338.07 L6.39 338.07 L6.39 333.86 L10.61 333.86 L10.61 331.68 L6.39 331.68 L6.39
						 327.47 L4.21 327.47 L4.21 331.68 L0 331.68 L0 333.86 Z" class="st4"/>
		</g>
		<g id="shape18-21" transform="translate(324.378,-110.093)">
			<title>Sheet.18</title>
			<ellipse cx="6.37795" cy="331.695" rx="6.37795" ry="6.37795" class="st3"/>
		</g>
		<g id="shape9-23" transform="translate(562.309,-17.4512) rotate(45)">
			<title>Cross.9</title>
			<path d="M0 333.86 L4.21 333.86 L4.21 338.07 L6.39 338.07 L6.39 333.86 L10.61 333.86 L10.61 331.68 L6.39 331.68 L6.39
						 327.47 L4.21 327.47 L4.21 331.68 L0 331.68 L0 333.86 Z" class="st4"/>
		</g>
		<g id="shape16-25" transform="translate(74.3899,-265.998)">
			<title>Sheet.16</title>
			<ellipse cx="6.37795" cy="331.695" rx="6.37795" ry="6.37795" class="st3"/>
		</g>
		<g id="shape10-27" transform="translate(312.321,-173.357) rotate(45)">
			<title>Cross.10</title>
			<path d="M0 333.86 L4.21 333.86 L4.21 338.07 L6.39 338.07 L6.39 333.86 L10.61 333.86 L10.61 331.68 L6.39 331.68 L6.39
						 327.47 L4.21 327.47 L4.21 331.68 L0 331.68 L0 333.86 Z" class="st4"/>
		</g>
		<g id="shape11-29" transform="translate(139.683,-0.25)">
			<title>Sheet.11</title>
			<desc>Score1</desc>
			<rect x="0" y="318.073" width="152" height="20" class="st5"/>
			<text x="59.42" y="331.67" class="st6">Score1</text>		</g>
		<g id="shape12-32" transform="translate(-317.823,234.643) rotate(-90)">
			<title>Sheet.12</title>
			<desc>Score2</desc>
			<rect x="0" y="318.073" width="152" height="20" class="st5"/>
			<text x="59.42" y="331.67" class="st6">Score2</text>		</g>
		<g id="shape19-35" transform="translate(184.344,-214.62)">
			<title>Sheet.19</title>
			<desc>s1</desc>
			<rect x="0" y="318.073" width="20" height="20" class="st5"/>
			<text x="4.61" y="331.67" class="st6">s1</text>		</g>
		<g id="shape20-38" transform="translate(213.526,-214.62)">
			<title>Sheet.20</title>
			<desc>s2, s3</desc>
			<rect x="0" y="318.073" width="41.7039" height="20" class="st5"/>
			<text x="7.22" y="331.67" class="st6">s2, s3</text>		</g>
		<g id="shape21-41" transform="translate(315.277,-121.982)">
			<title>Sheet.21</title>
			<desc>s4</desc>
			<rect x="0" y="318.073" width="20" height="20" class="st5"/>
			<text x="4.61" y="331.67" class="st6">s4</text>		</g>
		<g id="shape22-44" transform="translate(204.344,-184.502)">
			<title>Sheet.22</title>
			<desc>s5</desc>
			<rect x="0" y="318.073" width="20" height="20" class="st5"/>
			<text x="4.61" y="331.67" class="st6">s5</text>		</g>
		<g id="shape23-47" transform="translate(65.2894,-277.888)">
			<title>Sheet.23</title>
			<desc>s6</desc>
			<rect x="0" y="318.073" width="20" height="20" class="st5"/>
			<text x="4.61" y="331.67" class="st6">s6</text>		</g>
	</g>
</svg>
