<?xml version="1.0" encoding="UTF-8" standalone="no"?>
<!DOCTYPE svg PUBLIC "-//W3C//DTD SVG 1.1//EN" "http://www.w3.org/Graphics/SVG/1.1/DTD/svg11.dtd">
<!-- Generated by Microsoft Visio, SVG Export fig3-4.svg Page-3-4 -->
<svg xmlns="http://www.w3.org/2000/svg" xmlns:xlink="http://www.w3.org/1999/xlink" xmlns:ev="http://www.w3.org/2001/xml-events"
		width="5.68318in" height="4.69893in" viewBox="0 0 409.189 338.323" xml:space="preserve" color-interpolation-filters="sRGB"
		class="st7">
	<style type="text/css">
	<![CDATA[
		.st1 {fill:#d8d8d8;stroke:none;stroke-width:0.25}
		.st2 {stroke:#000000;stroke-linecap:round;stroke-linejoin:round;stroke-width:1}
		.st3 {fill:none;stroke:none;stroke-width:0.25}
		.st4 {fill:#000000;font-family:Calibri;font-size:1.00001em}
		.st5 {fill:#000000;stroke:#000000;stroke-width:1}
		.st6 {fill:#000000;stroke:#c7c8c8;stroke-width:0.25}
		.st7 {fill:none;fill-rule:evenodd;font-size:12px;overflow:visible;stroke-linecap:square;stroke-miterlimit:3}
	]]>
	</style>

	<g>
		<title>Page-3-4</title>
		<g id="shape29-1" transform="translate(23.4941,-21.5098)">
			<title>Rectangle</title>
			<rect x="0" y="172.268" width="385.445" height="166.054" class="st1"/>
		</g>
		<g id="shape30-3" transform="translate(23.4941,-23.0805)">
			<title>Rectangle.30</title>
			<rect x="0" y="23.3305" width="223.828" height="314.992" class="st1"/>
		</g>
		<g id="shape2-5" transform="translate(361.25,0.749993) rotate(90)">
			<title>Sheet.2</title>
			<path d="M0 338.32 L316.29 338.32" class="st2"/>
		</g>
		<g id="shape3-8" transform="translate(22.9272,-21.2861)">
			<title>Sheet.3</title>
			<path d="M0 338.32 L385.51 338.32" class="st2"/>
		</g>
		<g id="shape11-11" transform="translate(139.683,-0.25)">
			<title>Sheet.11</title>
			<desc>m1</desc>
			<rect x="0" y="318.323" width="152" height="20" class="st3"/>
			<text x="68.17" y="331.92" class="st4">m1</text>		</g>
		<g id="shape12-14" transform="translate(-318.073,234.893) rotate(-90)">
			<title>Sheet.12</title>
			<desc>m2</desc>
			<rect x="0" y="318.323" width="152" height="20" class="st3"/>
			<text x="68.17" y="331.92" class="st4">m2</text>		</g>
		<g id="shape14-17" transform="translate(295.722,-80.4426)">
			<title>Sheet.14</title>
			<ellipse cx="2.92921" cy="335.394" rx="2.92921" ry="2.92921" class="st5"/>
		</g>
		<g id="shape21-19" transform="translate(336.646,-97.8244)">
			<title>Sheet.21</title>
			<ellipse cx="2.92921" cy="335.394" rx="2.92921" ry="2.92921" class="st5"/>
		</g>
		<g id="shape24-21" transform="translate(42.5197,-36.6613)">
			<title>Sheet.24</title>
			<ellipse cx="2.92921" cy="335.394" rx="2.92921" ry="2.92921" class="st5"/>
		</g>
		<g id="shape26-23" transform="translate(67.9369,-223.842)">
			<title>Sheet.26</title>
			<ellipse cx="2.92921" cy="335.394" rx="2.92921" ry="2.92921" class="st5"/>
		</g>
		<g id="shape27-25" transform="translate(113.386,-291.779)">
			<title>Sheet.27</title>
			<ellipse cx="2.92921" cy="335.394" rx="2.92921" ry="2.92921" class="st5"/>
		</g>
		<g id="shape19-27" transform="translate(363.367,38.7042) rotate(45)">
			<title>Cross.9</title>
			<path d="M0 334.11 L4.21 334.11 L4.21 338.32 L6.39 338.32 L6.39 334.11 L10.61 334.11 L10.61 331.93 L6.39 331.93 L6.39
						 327.72 L4.21 327.72 L4.21 331.93 L0 331.93 L0 334.11 Z" class="st6"/>
		</g>
		<g id="shape31-29" transform="translate(398.879,-53.8838) rotate(45)">
			<title>Cross.31</title>
			<path d="M0 334.11 L4.21 334.11 L4.21 338.32 L6.39 338.32 L6.39 334.11 L10.61 334.11 L10.61 331.93 L6.39 331.93 L6.39
						 327.72 L4.21 327.72 L4.21 331.93 L0 331.93 L0 334.11 Z" class="st6"/>
		</g>
		<g id="shape32-31" transform="translate(479.051,-88.4718) rotate(45)">
			<title>Cross.32</title>
			<path d="M0 334.11 L4.21 334.11 L4.21 338.32 L6.39 338.32 L6.39 334.11 L10.61 334.11 L10.61 331.93 L6.39 331.93 L6.39
						 327.72 L4.21 327.72 L4.21 331.93 L0 331.93 L0 334.11 Z" class="st6"/>
		</g>
	</g>
</svg>
