<?xml version="1.0" encoding="UTF-8" standalone="no"?>
<!DOCTYPE svg PUBLIC "-//W3C//DTD SVG 1.1//EN" "http://www.w3.org/Graphics/SVG/1.1/DTD/svg11.dtd">
<!-- Generated by Microsoft Visio, SVG Export fig3-9.svg Page-3-9 -->
<svg xmlns="http://www.w3.org/2000/svg" xmlns:xlink="http://www.w3.org/1999/xlink" xmlns:ev="http://www.w3.org/2001/xml-events"
		width="5.67971in" height="4.69546in" viewBox="0 0 408.939 338.073" xml:space="preserve" color-interpolation-filters="sRGB"
		class="st8">
	<style type="text/css">
	<![CDATA[
		.st1 {fill:#d8d8d8;stroke:none;stroke-width:0.25}
		.st2 {fill:#ffffff;stroke:#000000;stroke-width:1}
		.st3 {stroke:#000000;stroke-linecap:round;stroke-linejoin:round;stroke-width:1}
		.st4 {fill:none;stroke:none;stroke-width:0.25}
		.st5 {fill:#000000;font-family:Calibri;font-size:1.00001em}
		.st6 {fill:#000000;stroke:#000000;stroke-width:1}
		.st7 {fill:#000000;stroke:#c7c8c8;stroke-width:0.25}
		.st8 {fill:none;fill-rule:evenodd;font-size:12px;overflow:visible;stroke-linecap:square;stroke-miterlimit:3}
	]]>
	</style>

	<g>
		<title>Page-3-9</title>
		<g id="shape29-1" transform="translate(22.5343,-21.5098)">
			<title>Rectangle</title>
			<rect x="0" y="65.3465" width="386.405" height="272.726" class="st1"/>
		</g>
		<g id="shape36-3" transform="translate(22.5343,-21.5098)">
			<title>Rectangle.36</title>
			<rect x="0" y="21.5098" width="93.6862" height="316.563" class="st1"/>
		</g>
		<g id="shape33-5" transform="translate(240.944,-181.186)">
			<title>Sheet.33</title>
			<ellipse cx="6.37795" cy="331.695" rx="6.37795" ry="6.37795" class="st2"/>
		</g>
		<g id="shape2-7" transform="translate(361,0.5) rotate(90)">
			<title>Sheet.2</title>
			<path d="M0 338.07 L316.29 338.07" class="st3"/>
		</g>
		<g id="shape3-10" transform="translate(22.9272,-21.2861)">
			<title>Sheet.3</title>
			<path d="M0 338.07 L385.51 338.07" class="st3"/>
		</g>
		<g id="shape11-13" transform="translate(139.683,-0.25)">
			<title>Sheet.11</title>
			<desc>m1</desc>
			<rect x="0" y="318.073" width="152" height="20" class="st4"/>
			<text x="68.17" y="331.67" class="st5">m1</text>		</g>
		<g id="shape12-16" transform="translate(-317.823,234.643) rotate(-90)">
			<title>Sheet.12</title>
			<desc>m2</desc>
			<rect x="0" y="318.073" width="152" height="20" class="st4"/>
			<text x="68.17" y="331.67" class="st5">m2</text>		</g>
		<g id="shape24-19" transform="translate(42.5197,-36.6613)">
			<title>Sheet.24</title>
			<ellipse cx="2.92921" cy="335.144" rx="2.92921" ry="2.92921" class="st6"/>
		</g>
		<g id="shape26-21" transform="translate(67.9369,-223.842)">
			<title>Sheet.26</title>
			<ellipse cx="2.92921" cy="335.144" rx="2.92921" ry="2.92921" class="st6"/>
		</g>
		<g id="shape19-23" transform="translate(363.19,38.631) rotate(45)">
			<title>Cross.9</title>
			<path d="M0 333.86 L4.21 333.86 L4.21 338.07 L6.39 338.07 L6.39 333.86 L10.61 333.86 L10.61 331.68 L6.39 331.68 L6.39
						 327.47 L4.21 327.47 L4.21 331.68 L0 331.68 L0 333.86 Z" class="st7"/>
		</g>
		<g id="shape31-25" transform="translate(398.702,-53.9571) rotate(45)">
			<title>Cross.31</title>
			<path d="M0 333.86 L4.21 333.86 L4.21 338.07 L6.39 338.07 L6.39 333.86 L10.61 333.86 L10.61 331.68 L6.39 331.68 L6.39
						 327.47 L4.21 327.47 L4.21 331.68 L0 331.68 L0 333.86 Z" class="st7"/>
		</g>
		<g id="shape32-27" transform="translate(478.875,-88.545) rotate(45)">
			<title>Cross.32</title>
			<path d="M0 333.86 L4.21 333.86 L4.21 338.07 L6.39 338.07 L6.39 333.86 L10.61 333.86 L10.61 331.68 L6.39 331.68 L6.39
						 327.47 L4.21 327.47 L4.21 331.68 L0 331.68 L0 333.86 Z" class="st7"/>
		</g>
		<g id="shape34-29" transform="translate(530.205,15.6474) rotate(45)">
			<title>Cross.34</title>
			<path d="M0 333.86 L4.21 333.86 L4.21 338.07 L6.39 338.07 L6.39 333.86 L10.61 333.86 L10.61 331.68 L6.39 331.68 L6.39
						 327.47 L4.21 327.47 L4.21 331.68 L0 331.68 L0 333.86 Z" class="st7"/>
		</g>
		<g id="shape38-31" transform="translate(333.197,-94.3756)">
			<title>Sheet.38</title>
			<ellipse cx="6.37795" cy="331.695" rx="6.37795" ry="6.37795" class="st2"/>
		</g>
		<g id="shape37-33" transform="translate(571.128,-1.73432) rotate(45)">
			<title>Cross.37</title>
			<path d="M0 333.86 L4.21 333.86 L4.21 338.07 L6.39 338.07 L6.39 333.86 L10.61 333.86 L10.61 331.68 L6.39 331.68 L6.39
						 327.47 L4.21 327.47 L4.21 331.68 L0 331.68 L0 333.86 Z" class="st7"/>
		</g>
		<g id="shape39-35" transform="translate(347.868,-195.689) rotate(45)">
			<title>Cross.39</title>
			<path d="M0 333.86 L4.21 333.86 L4.21 338.07 L6.39 338.07 L6.39 333.86 L10.61 333.86 L10.61 331.68 L6.39 331.68 L6.39
						 327.47 L4.21 327.47 L4.21 331.68 L0 331.68 L0 333.86 Z" class="st7"/>
		</g>
	</g>
</svg>
