<?xml version="1.0" encoding="UTF-8" standalone="no"?>
<!DOCTYPE svg PUBLIC "-//W3C//DTD SVG 1.1//EN" "http://www.w3.org/Graphics/SVG/1.1/DTD/svg11.dtd">
<!-- Generated by Microsoft Visio, SVG Export fig3-1.svg Page-1-1 -->
<svg xmlns="http://www.w3.org/2000/svg" xmlns:xlink="http://www.w3.org/1999/xlink" xmlns:ev="http://www.w3.org/2001/xml-events"
		width="5.67971in" height="4.69546in" viewBox="0 0 408.939 338.073" xml:space="preserve" color-interpolation-filters="sRGB"
		class="st5">
	<style type="text/css">
	<![CDATA[
		.st1 {stroke:#000000;stroke-linecap:round;stroke-linejoin:round;stroke-width:1}
		.st2 {fill:none;stroke:none;stroke-width:0.25}
		.st3 {fill:#000000;font-family:Calibri;font-size:1.00001em}
		.st4 {fill:#000000;stroke:#000000;stroke-width:1}
		.st5 {fill:none;fill-rule:evenodd;font-size:12px;overflow:visible;stroke-linecap:square;stroke-miterlimit:3}
	]]>
	</style>

	<g>
		<title>Page-3-1</title>
		<g id="shape2-1" transform="translate(361,0.5) rotate(90)">
			<title>Sheet.2</title>
			<path d="M0 338.07 L316.29 338.07" class="st1"/>
		</g>
		<g id="shape3-4" transform="translate(22.9272,-21.2861)">
			<title>Sheet.3</title>
			<path d="M0 338.07 L385.51 338.07" class="st1"/>
		</g>
		<g id="shape11-7" transform="translate(139.683,-0.25)">
			<title>Sheet.11</title>
			<desc>m1</desc>
			<rect x="0" y="318.073" width="152" height="20" class="st2"/>
			<text x="68.17" y="331.67" class="st3">m1</text>		</g>
		<g id="shape12-10" transform="translate(-317.823,234.643) rotate(-90)">
			<title>Sheet.12</title>
			<desc>m2</desc>
			<rect x="0" y="318.073" width="152" height="20" class="st2"/>
			<text x="68.17" y="331.67" class="st3">m2</text>		</g>
		<g id="shape14-13" transform="translate(295.722,-80.4426)">
			<title>Sheet.14</title>
			<ellipse cx="2.92921" cy="335.144" rx="2.92921" ry="2.92921" class="st4"/>
		</g>
		<g id="shape21-15" transform="translate(336.646,-97.8244)">
			<title>Sheet.21</title>
			<ellipse cx="2.92921" cy="335.144" rx="2.92921" ry="2.92921" class="st4"/>
		</g>
		<g id="shape22-17" transform="translate(244.392,-184.635)">
			<title>Sheet.22</title>
			<ellipse cx="2.92921" cy="335.144" rx="2.92921" ry="2.92921" class="st4"/>
		</g>
		<g id="shape23-19" transform="translate(164.22,-150.047)">
			<title>Sheet.23</title>
			<ellipse cx="2.92921" cy="335.144" rx="2.92921" ry="2.92921" class="st4"/>
		</g>
		<g id="shape24-21" transform="translate(42.5197,-36.6613)">
			<title>Sheet.24</title>
			<ellipse cx="2.92921" cy="335.144" rx="2.92921" ry="2.92921" class="st4"/>
		</g>
		<g id="shape25-23" transform="translate(128.708,-57.459)">
			<title>Sheet.25</title>
			<ellipse cx="2.92921" cy="335.144" rx="2.92921" ry="2.92921" class="st4"/>
		</g>
		<g id="shape26-25" transform="translate(67.9369,-223.842)">
			<title>Sheet.26</title>
			<ellipse cx="2.92921" cy="335.144" rx="2.92921" ry="2.92921" class="st4"/>
		</g>
		<g id="shape27-27" transform="translate(113.386,-291.779)">
			<title>Sheet.27</title>
			<ellipse cx="2.92921" cy="335.144" rx="2.92921" ry="2.92921" class="st4"/>
		</g>
	</g>
</svg>
