<?xml version="1.0" encoding="UTF-8" standalone="no"?>
<!DOCTYPE svg PUBLIC "-//W3C//DTD SVG 1.1//EN" "http://www.w3.org/Graphics/SVG/1.1/DTD/svg11.dtd">
<!-- Generated by Microsoft Visio, SVG Export fig3-7.svg Page-3-7 -->
<svg xmlns="http://www.w3.org/2000/svg" xmlns:xlink="http://www.w3.org/1999/xlink" xmlns:ev="http://www.w3.org/2001/xml-events"
		width="5.68665in" height="4.7024in" viewBox="0 0 409.439 338.573" xml:space="preserve" color-interpolation-filters="sRGB"
		class="st8">
	<style type="text/css">
	<![CDATA[
		.st1 {fill:#d8d8d8;stroke:none;stroke-width:0.25}
		.st2 {fill:#ffffff;stroke:#000000;stroke-width:1}
		.st3 {stroke:#000000;stroke-linecap:round;stroke-linejoin:round;stroke-width:1}
		.st4 {fill:none;stroke:none;stroke-width:0.25}
		.st5 {fill:#000000;font-family:Calibri;font-size:1.00001em}
		.st6 {fill:#000000;stroke:#000000;stroke-width:1}
		.st7 {fill:#000000;stroke:#c7c8c8;stroke-width:0.25}
		.st8 {fill:none;fill-rule:evenodd;font-size:12px;overflow:visible;stroke-linecap:square;stroke-miterlimit:3}
	]]>
	</style>

	<g>
		<title>Page-3-7</title>
		<g id="shape29-1" transform="translate(22.5343,-21.5098)">
			<title>Rectangle</title>
			<rect x="0" y="259.453" width="386.655" height="79.1201" class="st1"/>
		</g>
		<g id="shape36-3" transform="translate(22.5343,-21.5098)">
			<title>Rectangle.36</title>
			<rect x="0" y="21.7598" width="317.056" height="316.813" class="st1"/>
		</g>
		<g id="shape33-5" transform="translate(240.944,-181.186)">
			<title>Sheet.33</title>
			<ellipse cx="6.37795" cy="332.195" rx="6.37795" ry="6.37795" class="st2"/>
		</g>
		<g id="shape2-7" transform="translate(361.5,0.999992) rotate(90)">
			<title>Sheet.2</title>
			<path d="M0 338.57 L316.29 338.57" class="st3"/>
		</g>
		<g id="shape3-10" transform="translate(22.9272,-21.2861)">
			<title>Sheet.3</title>
			<path d="M0 338.57 L385.51 338.57" class="st3"/>
		</g>
		<g id="shape11-13" transform="translate(139.683,-0.25)">
			<title>Sheet.11</title>
			<desc>m1</desc>
			<rect x="0" y="318.573" width="152" height="20" class="st4"/>
			<text x="68.17" y="332.17" class="st5">m1</text>		</g>
		<g id="shape12-16" transform="translate(-318.323,235.143) rotate(-90)">
			<title>Sheet.12</title>
			<desc>m2</desc>
			<rect x="0" y="318.573" width="152" height="20" class="st4"/>
			<text x="68.17" y="332.17" class="st5">m2</text>		</g>
		<g id="shape24-19" transform="translate(42.5197,-36.6613)">
			<title>Sheet.24</title>
			<ellipse cx="2.92921" cy="335.644" rx="2.92921" ry="2.92921" class="st6"/>
		</g>
		<g id="shape26-21" transform="translate(67.9369,-223.842)">
			<title>Sheet.26</title>
			<ellipse cx="2.92921" cy="335.644" rx="2.92921" ry="2.92921" class="st6"/>
		</g>
		<g id="shape27-23" transform="translate(113.386,-291.779)">
			<title>Sheet.27</title>
			<ellipse cx="2.92921" cy="335.644" rx="2.92921" ry="2.92921" class="st6"/>
		</g>
		<g id="shape19-25" transform="translate(363.544,38.7774) rotate(45)">
			<title>Cross.9</title>
			<path d="M0 334.36 L4.21 334.36 L4.21 338.57 L6.39 338.57 L6.39 334.36 L10.61 334.36 L10.61 332.18 L6.39 332.18 L6.39
						 327.97 L4.21 327.97 L4.21 332.18 L0 332.18 L0 334.36 Z" class="st7"/>
		</g>
		<g id="shape31-27" transform="translate(399.056,-53.8106) rotate(45)">
			<title>Cross.31</title>
			<path d="M0 334.36 L4.21 334.36 L4.21 338.57 L6.39 338.57 L6.39 334.36 L10.61 334.36 L10.61 332.18 L6.39 332.18 L6.39
						 327.97 L4.21 327.97 L4.21 332.18 L0 332.18 L0 334.36 Z" class="st7"/>
		</g>
		<g id="shape32-29" transform="translate(479.228,-88.3986) rotate(45)">
			<title>Cross.32</title>
			<path d="M0 334.36 L4.21 334.36 L4.21 338.57 L6.39 338.57 L6.39 334.36 L10.61 334.36 L10.61 332.18 L6.39 332.18 L6.39
						 327.97 L4.21 327.97 L4.21 332.18 L0 332.18 L0 334.36 Z" class="st7"/>
		</g>
		<g id="shape34-31" transform="translate(530.558,15.7938) rotate(45)">
			<title>Cross.34</title>
			<path d="M0 334.36 L4.21 334.36 L4.21 338.57 L6.39 338.57 L6.39 334.36 L10.61 334.36 L10.61 332.18 L6.39 332.18 L6.39
						 327.97 L4.21 327.97 L4.21 332.18 L0 332.18 L0 334.36 Z" class="st7"/>
		</g>
		<g id="shape37-33" transform="translate(571.482,-1.58788) rotate(45)">
			<title>Cross.37</title>
			<path d="M0 334.36 L4.21 334.36 L4.21 338.57 L6.39 338.57 L6.39 334.36 L10.61 334.36 L10.61 332.18 L6.39 332.18 L6.39
						 327.97 L4.21 327.97 L4.21 332.18 L0 332.18 L0 334.36 Z" class="st7"/>
		</g>
	</g>
</svg>
