<?xml version="1.0" encoding="UTF-8" standalone="no"?>
<!DOCTYPE svg PUBLIC "-//W3C//DTD SVG 1.1//EN" "http://www.w3.org/Graphics/SVG/1.1/DTD/svg11.dtd">
<!-- Generated by Microsoft Visio, SVG Export fig5-1.svg Page-4-1 -->
<svg xmlns="http://www.w3.org/2000/svg" xmlns:xlink="http://www.w3.org/1999/xlink" xmlns:ev="http://www.w3.org/2001/xml-events"
		width="7.94937in" height="6.56272in" viewBox="0 0 572.355 472.516" xml:space="preserve" color-interpolation-filters="sRGB"
		class="st9">
	<style type="text/css">
	<![CDATA[
		.st1 {fill:#d8d8d8;stroke:none;stroke-width:0.25}
		.st2 {fill:none;stroke:none;stroke-width:0.25}
		.st3 {fill:#000000;font-family:Calibri;font-size:1.00001em}
		.st4 {fill:#000000;stroke:#000000;stroke-width:1}
		.st5 {fill:#ffffff;stroke:#000000;stroke-width:1}
		.st6 {fill:#000000;stroke:#c7c8c8;stroke-width:0.25}
		.st7 {stroke:#000000;stroke-linecap:round;stroke-linejoin:round;stroke-width:1}
		.st8 {stroke:#000000;stroke-dasharray:7,5;stroke-linecap:round;stroke-linejoin:round;stroke-width:1}
		.st9 {fill:none;fill-rule:evenodd;font-size:12px;overflow:visible;stroke-linecap:square;stroke-miterlimit:3}
	]]>
	</style>

	<g>
		<title>Page-5-1</title>
		<g id="group159-1" transform="translate(6.93332,-250.469)">
			<title>Sheet.159</title>
			<g id="shape155-2" transform="translate(15.1783,-14.0794)">
				<title>Rectangle.36</title>
				<rect x="0" y="336.725" width="143.857" height="135.791" class="st1"/>
			</g>
			<g id="shape7-4" transform="translate(91.2837,0)">
				<title>Sheet.7</title>
				<desc>m1</desc>
				<rect x="0" y="459.443" width="99.511" height="13.0733" class="st2"/>
				<text x="41.92" y="469.58" class="st3">m1</text>			</g>
			<g id="shape8-7" transform="translate(-459.423,405.072) rotate(-90)">
				<title>Sheet.8</title>
				<desc>m2</desc>
				<rect x="0" y="459.423" width="99.3568" height="13.0936" class="st2"/>
				<text x="41.84" y="469.57" class="st3">m2</text>			</g>
			<g id="shape20-10" transform="translate(94.8907,-52.3082)">
				<title>Sheet.20</title>
				<ellipse cx="1.93437" cy="470.585" rx="1.93437" ry="1.93137" class="st4"/>
			</g>
			<g id="group21-12" transform="translate(154.917,-145.759)">
				<title>Sheet.21</title>
				<g id="shape22-13">
					<title>Sheet.22</title>
					<ellipse cx="4.21182" cy="468.311" rx="4.21182" ry="4.20529" class="st5"/>
				</g>
				<g id="shape23-15" transform="translate(333.382,134.191) rotate(45)">
					<title>Cross.40</title>
					<path d="M0 470.11 L2.41 470.11 L2.41 472.52 L4.59 472.52 L4.59 470.11 L7 470.11 L7 467.93 L4.59 467.93 L4.59
								 465.52 L2.41 465.52 L2.41 467.93 L0 467.93 L0 470.11 Z" class="st6"/>
				</g>
			</g>
			<g id="shape5-17" transform="translate(487.362,252.021) rotate(90)">
				<title>Sheet.5</title>
				<path d="M0 472.52 L206.74 472.52" class="st7"/>
			</g>
			<g id="shape6-20" transform="translate(14.8462,-13.7505)">
				<title>Sheet.6</title>
				<path d="M0 472.52 L252.39 472.52" class="st7"/>
			</g>
			<g id="group56-23" transform="translate(14.8462,-65.4367)">
				<title>Sheet.56</title>
				<g id="shape51-24" transform="translate(0,-51.6862)">
					<title>Sheet.51</title>
					<path d="M0 472.52 L252.39 472.52" class="st8"/>
				</g>
				<g id="shape52-27">
					<title>Sheet.52</title>
					<path d="M0 472.52 L252.39 472.52" class="st8"/>
				</g>
				<g id="shape53-30" transform="translate(0,-103.385)">
					<title>Sheet.53</title>
					<path d="M0 472.52 L252.39 472.52" class="st8"/>
				</g>
				<g id="shape54-33" transform="translate(0,-155.083)">
					<title>Sheet.54</title>
					<path d="M0 472.52 L252.39 472.52" class="st8"/>
				</g>
			</g>
		</g>
		<g id="group160-36" transform="translate(301.277,-250.469)">
			<title>Sheet.160</title>
			<g id="shape156-37" transform="translate(15.2472,-13.9759)">
				<title>Rectangle.156</title>
				<rect x="0" y="336.725" width="143.857" height="135.791" class="st1"/>
			</g>
			<g id="shape81-39" transform="translate(91.2837,0)">
				<title>Sheet.81</title>
				<desc>m1</desc>
				<rect x="0" y="459.443" width="99.511" height="13.0733" class="st2"/>
				<text x="41.92" y="469.58" class="st3">m1</text>			</g>
			<g id="shape82-42" transform="translate(-459.423,405.072) rotate(-90)">
				<title>Sheet.82</title>
				<desc>m2</desc>
				<rect x="0" y="459.423" width="99.3568" height="13.0936" class="st2"/>
				<text x="41.84" y="469.57" class="st3">m2</text>			</g>
			<g id="shape83-45" transform="translate(94.8907,-52.3082)">
				<title>Sheet.83</title>
				<ellipse cx="1.93437" cy="470.585" rx="1.93437" ry="1.93137" class="st4"/>
			</g>
			<g id="group84-47" transform="translate(154.917,-145.759)">
				<title>Sheet.84</title>
				<g id="shape85-48">
					<title>Sheet.85</title>
					<ellipse cx="4.21182" cy="468.311" rx="4.21182" ry="4.20529" class="st5"/>
				</g>
				<g id="shape86-50" transform="translate(333.382,134.191) rotate(45)">
					<title>Cross.40</title>
					<path d="M0 470.11 L2.41 470.11 L2.41 472.52 L4.59 472.52 L4.59 470.11 L7 470.11 L7 467.93 L4.59 467.93 L4.59
								 465.52 L2.41 465.52 L2.41 467.93 L0 467.93 L0 470.11 Z" class="st6"/>
				</g>
			</g>
			<g id="shape87-52" transform="translate(487.362,252.021) rotate(90)">
				<title>Sheet.87</title>
				<path d="M0 472.52 L206.74 472.52" class="st7"/>
			</g>
			<g id="shape88-55" transform="translate(14.8462,-13.7505)">
				<title>Sheet.88</title>
				<path d="M0 472.52 L252.39 472.52" class="st7"/>
			</g>
			<g id="group94-58" transform="translate(77.9427,-13.0733)">
				<title>Sheet.94</title>
				<g id="shape95-59" transform="translate(472.516,265.094) rotate(90)">
					<title>Sheet.95</title>
					<path d="M0 472.52 L206.74 472.52" class="st8"/>
				</g>
				<g id="shape96-62" transform="translate(661.806,265.094) rotate(90)">
					<title>Sheet.96</title>
					<path d="M0 472.52 L206.74 472.52" class="st8"/>
				</g>
				<g id="shape97-65" transform="translate(535.613,265.07) rotate(90)">
					<title>Sheet.97</title>
					<path d="M0 472.52 L206.74 472.52" class="st8"/>
				</g>
				<g id="shape98-68" transform="translate(598.709,265.771) rotate(90)">
					<title>Sheet.98</title>
					<path d="M0 472.52 L206.74 472.52" class="st8"/>
				</g>
			</g>
		</g>
		<g id="shape134-71" transform="translate(-162.342,400.676) rotate(-90)">
			<title>Sheet.134</title>
			<desc>m2</desc>
			<rect x="0" y="459.423" width="99.3568" height="13.0936" class="st2"/>
			<text x="41.84" y="469.57" class="st3">m2</text>		</g>
		<g id="group161-74" transform="translate(316.123,-11.2591)">
			<title>Sheet.161</title>
			<g id="shape158-75" transform="translate(0.49261,-13.9759)">
				<title>Rectangle.158</title>
				<rect x="0" y="336.725" width="143.857" height="135.791" class="st1"/>
			</g>
			<g id="shape133-77" transform="translate(76.4375,0)">
				<title>Sheet.133</title>
				<desc>m1</desc>
				<rect x="0" y="459.443" width="99.511" height="13.0733" class="st2"/>
				<text x="41.92" y="469.58" class="st3">m1</text>			</g>
			<g id="shape135-80" transform="translate(80.0445,-52.3082)">
				<title>Sheet.135</title>
				<ellipse cx="1.93437" cy="470.585" rx="1.93437" ry="1.93137" class="st4"/>
			</g>
			<g id="group136-82" transform="translate(140.071,-145.759)">
				<title>Sheet.136</title>
				<g id="shape137-83">
					<title>Sheet.137</title>
					<ellipse cx="4.21182" cy="468.311" rx="4.21182" ry="4.20529" class="st5"/>
				</g>
				<g id="shape138-85" transform="translate(333.382,134.191) rotate(45)">
					<title>Cross.40</title>
					<path d="M0 470.11 L2.41 470.11 L2.41 472.52 L4.59 472.52 L4.59 470.11 L7 470.11 L7 467.93 L4.59 467.93 L4.59
								 465.52 L2.41 465.52 L2.41 467.93 L0 467.93 L0 470.11 Z" class="st6"/>
				</g>
			</g>
			<g id="shape139-87" transform="translate(472.516,252.021) rotate(90)">
				<title>Sheet.139</title>
				<path d="M0 472.52 L206.74 472.52" class="st7"/>
			</g>
			<g id="shape140-90" transform="translate(6.39488E-014,-13.7505)">
				<title>Sheet.140</title>
				<path d="M0 472.52 L252.39 472.52" class="st7"/>
			</g>
			<g id="group151-93" transform="translate(0,-13.7505)">
				<title>Sheet.151</title>
				<g id="shape152-94" transform="translate(-298.556,106.616) rotate(-39.3738)">
					<title>Sheet.152</title>
					<path d="M0 472.52 L320.15 472.52" class="st8"/>
				</g>
				<g id="shape153-97" transform="translate(-178.889,35.1715) rotate(-22.2462)">
					<title>Sheet.153</title>
					<path d="M0 472.52 L272.31 472.52" class="st8"/>
				</g>
				<g id="shape154-100" transform="translate(-403.302,226.698) rotate(-58.6521)">
					<title>Sheet.154</title>
					<path d="M0 472.52 L242.11 472.52" class="st8"/>
				</g>
			</g>
		</g>
		<g id="group162-103" transform="translate(6.93332,-11.2591)">
			<title>Sheet.162</title>
			<g id="shape157-104" transform="translate(14.9542,-14.0372)">
				<title>Rectangle.157</title>
				<rect x="0" y="336.725" width="143.857" height="135.791" class="st1"/>
			</g>
			<g id="group103-106" transform="translate(14.8462,-13.7505)">
				<title>Sheet.103</title>
				<g id="shape104-107" transform="translate(-299.327,107.25) rotate(-39.3738)">
					<title>Sheet.104</title>
					<path d="M0 472.52 L325.94 472.52" class="st8"/>
				</g>
				<g id="shape105-110" transform="translate(-171.182,104.134) rotate(-39.0017)">
					<title>Sheet.105</title>
					<path d="M0 472.52 L162.38 472.52" class="st8"/>
				</g>
				<g id="shape106-113" transform="translate(-298.427,2.19213) rotate(-39.166)">
					<title>Sheet.106</title>
					<path d="M0 472.52 L162.76 472.52" class="st8"/>
				</g>
			</g>
			<g id="shape107-116" transform="translate(91.2837,0)">
				<title>Sheet.107</title>
				<desc>m1</desc>
				<rect x="0" y="459.443" width="99.511" height="13.0733" class="st2"/>
				<text x="41.92" y="469.58" class="st3">m1</text>			</g>
			<g id="shape108-119" transform="translate(-459.423,405.072) rotate(-90)">
				<title>Sheet.108</title>
				<desc>m2</desc>
				<rect x="0" y="459.423" width="99.3568" height="13.0936" class="st2"/>
				<text x="41.84" y="469.57" class="st3">m2</text>			</g>
			<g id="shape109-122" transform="translate(94.8907,-52.3082)">
				<title>Sheet.109</title>
				<ellipse cx="1.93437" cy="470.585" rx="1.93437" ry="1.93137" class="st4"/>
			</g>
			<g id="group110-124" transform="translate(154.917,-145.759)">
				<title>Sheet.110</title>
				<g id="shape111-125">
					<title>Sheet.111</title>
					<ellipse cx="4.21182" cy="468.311" rx="4.21182" ry="4.20529" class="st5"/>
				</g>
				<g id="shape112-127" transform="translate(333.382,134.191) rotate(45)">
					<title>Cross.40</title>
					<path d="M0 470.11 L2.41 470.11 L2.41 472.52 L4.59 472.52 L4.59 470.11 L7 470.11 L7 467.93 L4.59 467.93 L4.59
								 465.52 L2.41 465.52 L2.41 467.93 L0 467.93 L0 470.11 Z" class="st6"/>
				</g>
			</g>
			<g id="shape113-129" transform="translate(487.362,252.021) rotate(90)">
				<title>Sheet.113</title>
				<path d="M0 472.52 L206.74 472.52" class="st7"/>
			</g>
			<g id="shape114-132" transform="translate(14.8462,-13.7505)">
				<title>Sheet.114</title>
				<path d="M0 472.52 L252.39 472.52" class="st7"/>
			</g>
		</g>
	</g>
</svg>
