<?xml version="1.0" encoding="UTF-8" standalone="no"?>
<!DOCTYPE svg PUBLIC "-//W3C//DTD SVG 1.1//EN" "http://www.w3.org/Graphics/SVG/1.1/DTD/svg11.dtd">
<!-- Generated by Microsoft Visio, SVG Export fig5-2.svg Page-4-2 -->
<svg xmlns="http://www.w3.org/2000/svg" xmlns:xlink="http://www.w3.org/1999/xlink" xmlns:ev="http://www.w3.org/2001/xml-events"
		width="5.69198in" height="4.69546in" viewBox="0 0 409.823 338.073" xml:space="preserve" color-interpolation-filters="sRGB"
		class="st9">
	<style type="text/css">
	<![CDATA[
		.st1 {fill:#d8d8d8;stroke:none;stroke-width:0.25}
		.st2 {stroke:#000000;stroke-dasharray:7,5;stroke-linecap:round;stroke-linejoin:round;stroke-width:1}
		.st3 {fill:#ffffff;stroke:#000000;stroke-width:1}
		.st4 {stroke:#000000;stroke-linecap:round;stroke-linejoin:round;stroke-width:1}
		.st5 {fill:none;stroke:none;stroke-width:0.25}
		.st6 {fill:#000000;font-family:Calibri;font-size:1.00001em}
		.st7 {fill:#000000;stroke:#000000;stroke-width:1}
		.st8 {fill:#000000;stroke:#c7c8c8;stroke-width:0.25}
		.st9 {fill:none;fill-rule:evenodd;font-size:12px;overflow:visible;stroke-linecap:square;stroke-miterlimit:3}
	]]>
	</style>

	<g>
		<title>Page-5-2</title>
		<g id="shape17-1" transform="translate(247.322,-187.564)">
			<title>Rectangle.17</title>
			<rect x="0" y="188.235" width="161.333" height="149.838" class="st1"/>
		</g>
		<g id="shape1-3" transform="translate(22.5343,-21.5098)">
			<title>Rectangle</title>
			<rect x="0" y="171.929" width="224.647" height="166.144" class="st1"/>
		</g>
		<g id="shape18-5" transform="translate(23.811,-187.654)">
			<title>Sheet.18</title>
			<path d="M0 338.07 L385.51 338.07" class="st2"/>
		</g>
		<g id="shape19-8" transform="translate(585.062,0.5) rotate(90)">
			<title>Sheet.19</title>
			<path d="M0 338.07 L316.29 338.07" class="st2"/>
		</g>
		<g id="shape2-11" transform="translate(240.944,-181.186)">
			<title>Sheet.2</title>
			<ellipse cx="6.37795" cy="331.695" rx="6.37795" ry="6.37795" class="st3"/>
		</g>
		<g id="shape3-13" transform="translate(361,0.500006) rotate(90)">
			<title>Sheet.3</title>
			<path d="M0 338.07 L316.29 338.07" class="st4"/>
		</g>
		<g id="shape4-16" transform="translate(22.9272,-21.2861)">
			<title>Sheet.4</title>
			<path d="M0 338.07 L385.51 338.07" class="st4"/>
		</g>
		<g id="shape5-19" transform="translate(139.683,-0.25)">
			<title>Sheet.5</title>
			<desc>m1</desc>
			<rect x="0" y="318.073" width="152" height="20" class="st5"/>
			<text x="68.17" y="331.67" class="st6">m1</text>		</g>
		<g id="shape6-22" transform="translate(-317.823,234.643) rotate(-90)">
			<title>Sheet.6</title>
			<desc>m2</desc>
			<rect x="0" y="318.073" width="152" height="20" class="st5"/>
			<text x="68.17" y="331.67" class="st6">m2</text>		</g>
		<g id="shape7-25" transform="translate(295.722,-80.4426)">
			<title>Sheet.7</title>
			<ellipse cx="2.92921" cy="335.144" rx="2.92921" ry="2.92921" class="st7"/>
		</g>
		<g id="shape8-27" transform="translate(336.646,-97.8244)">
			<title>Sheet.8</title>
			<ellipse cx="2.92921" cy="335.144" rx="2.92921" ry="2.92921" class="st7"/>
		</g>
		<g id="shape9-29" transform="translate(42.5197,-36.6613)">
			<title>Sheet.9</title>
			<ellipse cx="2.92921" cy="335.144" rx="2.92921" ry="2.92921" class="st7"/>
		</g>
		<g id="shape10-31" transform="translate(67.9369,-223.842)">
			<title>Sheet.10</title>
			<ellipse cx="2.92921" cy="335.144" rx="2.92921" ry="2.92921" class="st7"/>
		</g>
		<g id="shape11-33" transform="translate(113.386,-291.779)">
			<title>Sheet.11</title>
			<ellipse cx="2.92921" cy="335.144" rx="2.92921" ry="2.92921" class="st7"/>
		</g>
		<g id="shape14-35" transform="translate(478.875,-88.545) rotate(45)">
			<title>Cross.32</title>
			<path d="M0 333.86 L4.21 333.86 L4.21 338.07 L6.39 338.07 L6.39 333.86 L10.61 333.86 L10.61 331.68 L6.39 331.68 L6.39
						 327.47 L4.21 327.47 L4.21 331.68 L0 331.68 L0 333.86 Z" class="st8"/>
		</g>
		<g id="shape15-37" transform="translate(164.22,-150.047)">
			<title>Sheet.15</title>
			<ellipse cx="2.92921" cy="335.144" rx="2.92921" ry="2.92921" class="st7"/>
		</g>
		<g id="shape16-39" transform="translate(128.708,-57.459)">
			<title>Sheet.16</title>
			<ellipse cx="2.92921" cy="335.144" rx="2.92921" ry="2.92921" class="st7"/>
		</g>
	</g>
</svg>
