<?xml version="1.0" encoding="UTF-8" standalone="no"?>
<!DOCTYPE svg PUBLIC "-//W3C//DTD SVG 1.1//EN"
 "http://www.w3.org/Graphics/SVG/1.1/DTD/svg11.dtd">
<!-- Generated by graphviz version 2.34.0 (20131205.0655)
 -->
<!-- Title: g Pages: 1 -->
<svg width="206pt" height="260pt"
 viewBox="0.00 0.00 206.00 260.00" xmlns="http://www.w3.org/2000/svg" xmlns:xlink="http://www.w3.org/1999/xlink">
<g id="graph0" class="graph" transform="scale(1 1) rotate(0) translate(4 256)">
<title>g</title>
<!-- 111 -->
<g id="node1" class="node"><title>111</title>
<ellipse fill="grey" stroke="black" cx="99" cy="-234" rx="27" ry="18"/>
<text text-anchor="middle" x="99" y="-228.4" font-family="Times,serif" font-size="14.00">111</text>
</g>
<!-- 110 -->
<g id="node2" class="node"><title>110</title>
<ellipse fill="none" stroke="black" cx="27" cy="-162" rx="27" ry="18"/>
<text text-anchor="middle" x="27" y="-156.4" font-family="Times,serif" font-size="14.00">110</text>
</g>
<!-- 111&#45;&gt;110 -->
<g id="edge1" class="edge"><title>111&#45;&gt;110</title>
<path fill="none" stroke="black" d="M84.4297,-218.834C74.2501,-208.938 60.4761,-195.546 48.9694,-184.359"/>
<polygon fill="black" stroke="black" points="51.4055,-181.846 41.7957,-177.385 46.5259,-186.865 51.4055,-181.846"/>
</g>
<!-- 101 -->
<g id="node3" class="node"><title>101</title>
<ellipse fill="none" stroke="black" cx="99" cy="-162" rx="27" ry="18"/>
<text text-anchor="middle" x="99" y="-156.4" font-family="Times,serif" font-size="14.00">101</text>
</g>
<!-- 111&#45;&gt;101 -->
<g id="edge2" class="edge"><title>111&#45;&gt;101</title>
<path fill="none" stroke="black" d="M99,-215.697C99,-207.983 99,-198.712 99,-190.112"/>
<polygon fill="black" stroke="black" points="102.5,-190.104 99,-180.104 95.5001,-190.104 102.5,-190.104"/>
</g>
<!-- 011 -->
<g id="node4" class="node"><title>011</title>
<ellipse fill="none" stroke="black" cx="171" cy="-162" rx="27" ry="18"/>
<text text-anchor="middle" x="171" y="-156.4" font-family="Times,serif" font-size="14.00">011</text>
</g>
<!-- 111&#45;&gt;011 -->
<g id="edge3" class="edge"><title>111&#45;&gt;011</title>
<path fill="none" stroke="black" d="M113.57,-218.834C123.75,-208.938 137.524,-195.546 149.031,-184.359"/>
<polygon fill="black" stroke="black" points="151.474,-186.865 156.204,-177.385 146.595,-181.846 151.474,-186.865"/>
</g>
<!-- 100 -->
<g id="node5" class="node"><title>100</title>
<ellipse fill="none" stroke="black" cx="27" cy="-90" rx="27" ry="18"/>
<text text-anchor="middle" x="27" y="-84.4" font-family="Times,serif" font-size="14.00">100</text>
</g>
<!-- 110&#45;&gt;100 -->
<g id="edge4" class="edge"><title>110&#45;&gt;100</title>
<path fill="none" stroke="black" d="M27,-143.697C27,-135.983 27,-126.712 27,-118.112"/>
<polygon fill="black" stroke="black" points="30.5001,-118.104 27,-108.104 23.5001,-118.104 30.5001,-118.104"/>
</g>
<!-- 010 -->
<g id="node6" class="node"><title>010</title>
<ellipse fill="none" stroke="black" cx="99" cy="-90" rx="27" ry="18"/>
<text text-anchor="middle" x="99" y="-84.4" font-family="Times,serif" font-size="14.00">010</text>
</g>
<!-- 110&#45;&gt;010 -->
<g id="edge5" class="edge"><title>110&#45;&gt;010</title>
<path fill="none" stroke="black" d="M41.5703,-146.834C51.7499,-136.938 65.5239,-123.546 77.0306,-112.359"/>
<polygon fill="black" stroke="black" points="79.4741,-114.865 84.2043,-105.385 74.5945,-109.846 79.4741,-114.865"/>
</g>
<!-- 101&#45;&gt;100 -->
<g id="edge6" class="edge"><title>101&#45;&gt;100</title>
<path fill="none" stroke="black" d="M84.4297,-146.834C74.2501,-136.938 60.4761,-123.546 48.9694,-112.359"/>
<polygon fill="black" stroke="black" points="51.4055,-109.846 41.7957,-105.385 46.5259,-114.865 51.4055,-109.846"/>
</g>
<!-- 001 -->
<g id="node7" class="node"><title>001</title>
<ellipse fill="none" stroke="black" cx="171" cy="-90" rx="27" ry="18"/>
<text text-anchor="middle" x="171" y="-84.4" font-family="Times,serif" font-size="14.00">001</text>
</g>
<!-- 101&#45;&gt;001 -->
<g id="edge7" class="edge"><title>101&#45;&gt;001</title>
<path fill="none" stroke="black" d="M113.57,-146.834C123.75,-136.938 137.524,-123.546 149.031,-112.359"/>
<polygon fill="black" stroke="black" points="151.474,-114.865 156.204,-105.385 146.595,-109.846 151.474,-114.865"/>
</g>
<!-- 011&#45;&gt;010 -->
<g id="edge8" class="edge"><title>011&#45;&gt;010</title>
<path fill="none" stroke="black" d="M156.43,-146.834C146.25,-136.938 132.476,-123.546 120.969,-112.359"/>
<polygon fill="black" stroke="black" points="123.405,-109.846 113.796,-105.385 118.526,-114.865 123.405,-109.846"/>
</g>
<!-- 011&#45;&gt;001 -->
<g id="edge9" class="edge"><title>011&#45;&gt;001</title>
<path fill="none" stroke="black" d="M171,-143.697C171,-135.983 171,-126.712 171,-118.112"/>
<polygon fill="black" stroke="black" points="174.5,-118.104 171,-108.104 167.5,-118.104 174.5,-118.104"/>
</g>
<!-- 000 -->
<g id="node8" class="node"><title>000</title>
<ellipse fill="grey" stroke="black" cx="99" cy="-18" rx="27" ry="18"/>
<text text-anchor="middle" x="99" y="-12.4" font-family="Times,serif" font-size="14.00">000</text>
</g>
<!-- 100&#45;&gt;000 -->
<g id="edge10" class="edge"><title>100&#45;&gt;000</title>
<path fill="none" stroke="black" d="M41.5703,-74.8345C51.7499,-64.9376 65.5239,-51.5462 77.0306,-40.3591"/>
<polygon fill="black" stroke="black" points="79.4741,-42.865 84.2043,-33.3847 74.5945,-37.8461 79.4741,-42.865"/>
</g>
<!-- 010&#45;&gt;000 -->
<g id="edge11" class="edge"><title>010&#45;&gt;000</title>
<path fill="none" stroke="black" d="M99,-71.6966C99,-63.9827 99,-54.7125 99,-46.1124"/>
<polygon fill="black" stroke="black" points="102.5,-46.1043 99,-36.1043 95.5001,-46.1044 102.5,-46.1043"/>
</g>
<!-- 001&#45;&gt;000 -->
<g id="edge12" class="edge"><title>001&#45;&gt;000</title>
<path fill="none" stroke="black" d="M156.43,-74.8345C146.25,-64.9376 132.476,-51.5462 120.969,-40.3591"/>
<polygon fill="black" stroke="black" points="123.405,-37.8461 113.796,-33.3847 118.526,-42.865 123.405,-37.8461"/>
</g>
</g>
</svg>
